<?xml version="1.0" encoding="utf-8"?>
<!-- Generator: Adobe Illustrator 16.0.0, SVG Export Plug-In . SVG Version: 6.00 Build 0)  -->
<!DOCTYPE svg PUBLIC "-//W3C//DTD SVG 1.1//EN" "http://www.w3.org/Graphics/SVG/1.1/DTD/svg11.dtd">
<svg version="1.1" id="Layer_1" xmlns="http://www.w3.org/2000/svg" xmlns:xlink="http://www.w3.org/1999/xlink" x="0px" y="0px"
	 width="261.453px" height="246.248px" viewBox="0 0 261.453 246.248" enable-background="new 0 0 261.453 246.248"
	 xml:space="preserve">
<g>
	<path fill="#FFFFFF" d="M41.551,45.273h-25.66h-1.807C6.319,45.273,0,51.592,0,59.363c0,7.76,6.319,14.079,14.084,14.079h1.125
		h26.341c7.765,0,14.079-6.319,14.079-14.079C55.629,51.592,49.316,45.273,41.551,45.273z"/>
	<path fill="#FFFFFF" d="M41.551,109.045H15.209h-1.125C6.319,109.045,0,115.359,0,123.124s6.319,14.084,14.084,14.084h1.125h26.341
		c7.765,0,14.079-6.319,14.079-14.084S49.316,109.045,41.551,109.045z"/>
	<path fill="#FFFFFF" d="M41.551,172.812H15.209h-1.125C6.319,172.812,0,179.131,0,186.901c0,7.76,6.319,14.073,14.084,14.073h1.807
		h25.66c7.765,0,14.079-6.313,14.079-14.073C55.629,179.131,49.316,172.812,41.551,172.812z"/>
	<path fill="#FFFFFF" d="M208.048,0H68.609C43.461,0,22.427,17.414,16.758,40.823h24.792c10.217,0,18.529,8.318,18.529,18.54
		c0,10.217-8.312,18.529-18.529,18.529H15.209v26.703h26.341c10.217,0,18.529,8.312,18.529,18.529
		c0,10.218-8.312,18.535-18.529,18.535H15.209v26.703h26.341c10.217,0,18.529,8.312,18.529,18.54
		c0,10.212-8.312,18.529-18.529,18.529H16.758c5.669,23.408,26.703,40.817,51.851,40.817h139.439
		c29.495,0,53.404-23.909,53.404-53.404V53.405C261.453,23.915,237.543,0,208.048,0z M162.873,164.618H148.38v-27.585l1.446-36.894
		l-24.705,64.479h-10.414l-24.647-64.422l1.44,36.837v27.585H77.02V80.944h18.844l24.142,64.138l24.074-64.138h18.793V164.618z
		 M242.293,163.983c-2.835,0.883-5.907,1.326-9.201,1.326c-10.723,0-16.086-5.922-16.086-17.76v-34.194h-19.078v51.262h-13.97
		v-51.262h-9.82v-10.919h65.971v10.919h-9.133v33.678c0,2.375,0.459,4.083,1.394,5.142c0.94,1.053,2.628,1.58,5.04,1.58
		c1.456,0,3.081-0.191,4.884-0.573V163.983z"/>
</g>
</svg>
