<?xml version="1.0" encoding="utf-8"?>
<!-- Generator: Adobe Illustrator 16.0.0, SVG Export Plug-In . SVG Version: 6.00 Build 0)  -->
<!DOCTYPE svg PUBLIC "-//W3C//DTD SVG 1.1//EN" "http://www.w3.org/Graphics/SVG/1.1/DTD/svg11.dtd">
<svg version="1.1" id="Layer_1" xmlns="http://www.w3.org/2000/svg" xmlns:xlink="http://www.w3.org/1999/xlink" x="0px" y="0px"
	 width="446.172px" height="306.496px" viewBox="0 0 446.172 306.496" enable-background="new 0 0 446.172 306.496"
	 xml:space="preserve">
<g>
	<g>
		<path fill="#FFFFFF" d="M154.667,34.737h-19.688h-1.386c-5.958,0-10.807,4.849-10.807,10.811c0,5.954,4.849,10.803,10.807,10.803
			h0.863h20.211c5.958,0,10.802-4.849,10.802-10.803C165.469,39.585,160.625,34.737,154.667,34.737z"/>
		<path fill="#FFFFFF" d="M154.667,83.667h-20.211h-0.863c-5.958,0-10.807,4.844-10.807,10.802s4.849,10.807,10.807,10.807h0.863
			h20.211c5.958,0,10.802-4.849,10.802-10.807S160.625,83.667,154.667,83.667z"/>
		<path fill="#FFFFFF" d="M154.667,132.594h-20.211h-0.863c-5.958,0-10.807,4.849-10.807,10.811c0,5.954,4.849,10.798,10.807,10.798
			h1.386h19.688c5.958,0,10.802-4.845,10.802-10.798C165.469,137.442,160.625,132.594,154.667,132.594z"/>
		<path fill="#FFFFFF" d="M282.416,0H175.428c-19.295,0-35.434,13.361-39.784,31.322h19.022c7.839,0,14.217,6.382,14.217,14.225
			c0,7.839-6.377,14.217-14.217,14.217h-20.211v20.488h20.211c7.839,0,14.217,6.377,14.217,14.217
			c0,7.84-6.377,14.221-14.217,14.221h-20.211v20.488h20.211c7.839,0,14.217,6.377,14.217,14.225
			c0,7.835-6.377,14.217-14.217,14.217h-19.022c4.35,17.961,20.488,31.318,39.784,31.318h106.988
			c22.631,0,40.976-18.345,40.976-40.976V40.976C323.391,18.349,305.046,0,282.416,0z M247.753,126.307h-11.119v-21.166
			l1.109-28.308l-18.955,49.473h-7.99l-18.911-49.43l1.105,28.264v21.166h-11.111V62.106h14.458l18.523,49.211l18.472-49.211h14.419
			V126.307z M308.691,125.82c-2.175,0.677-4.532,1.018-7.06,1.018c-8.228,0-12.343-4.544-12.343-13.627V86.975h-14.638v39.332
			h-10.719V86.975h-7.535v-8.378h50.618v8.378h-7.008v25.84c0,1.822,0.353,3.133,1.069,3.945c0.722,0.808,2.017,1.212,3.867,1.212
			c1.117,0,2.364-0.147,3.747-0.44V125.82z"/>
	</g>
	<g>
		<path fill="#FFFFFF" d="M16.432,232.558l21.042,55.902l20.987-55.902h16.376v72.933H62.217v-24.042l1.252-32.161L41.927,305.49
			h-9.063l-21.494-56.152l1.252,32.11v24.042H0v-72.933H16.432z"/>
		<path fill="#FFFFFF" d="M121.027,305.49c-0.531-1.034-1.006-2.718-1.402-5.055c-3.874,4.04-8.62,6.061-14.229,6.061
			c-5.443,0-9.88-1.553-13.326-4.658c-3.43-3.105-5.158-6.948-5.158-11.523c0-5.78,2.147-10.209,6.434-13.299
			c4.294-3.09,10.434-4.635,18.412-4.635h7.463v-3.557c0-2.805-0.784-5.051-2.345-6.734c-1.577-1.688-3.97-2.531-7.17-2.531
			c-2.773,0-5.039,0.693-6.814,2.079c-1.774,1.387-2.654,3.146-2.654,5.284H88.061c0-2.971,0.99-5.751,2.955-8.342
			c1.973-2.587,4.659-4.615,8.042-6.085c3.391-1.47,7.17-2.202,11.345-2.202c6.346,0,11.409,1.592,15.18,4.781
			c3.771,3.188,5.712,7.673,5.815,13.448v24.445c0,4.877,0.681,8.767,2.052,11.675v0.848H121.027z M107.653,296.728
			c2.409,0,4.667-0.586,6.782-1.751c2.123-1.173,3.724-2.741,4.785-4.714v-10.221h-6.56c-4.508,0-7.899,0.789-10.165,2.357
			c-2.274,1.572-3.415,3.791-3.415,6.663c0,2.337,0.776,4.203,2.337,5.585C102.971,296.03,105.047,296.728,107.653,296.728z"/>
		<path fill="#FFFFFF" d="M159.396,238.115v13.176h9.571v9.016h-9.571v30.257c0,2.072,0.412,3.565,1.229,4.484
			c0.824,0.919,2.281,1.379,4.381,1.379c1.402,0,2.82-0.167,4.263-0.503v9.416c-2.773,0.768-5.451,1.156-8.018,1.156
			c-9.349,0-14.023-5.162-14.023-15.48v-30.709h-8.921v-9.016h8.921v-13.176H159.396z"/>
		<path fill="#FFFFFF" d="M190.255,257.201c3.969-4.603,9-6.908,15.077-6.908c11.552,0,17.414,6.592,17.581,19.783v35.414h-12.169
			v-34.963c0-3.739-0.816-6.386-2.432-7.938s-4-2.329-7.138-2.329c-4.88,0-8.509,2.171-10.917,6.512v38.719h-12.169v-76.938h12.169
			V257.201z"/>
		<path fill="#FFFFFF" d="M294.248,305.49h-12.676l-32.507-51.743v51.743h-12.676v-72.933h12.676l32.609,51.945v-51.945h12.573
			V305.49z"/>
		<path fill="#FFFFFF" d="M305.767,277.892c0-5.313,1.054-10.094,3.153-14.353c2.107-4.254,5.055-7.526,8.865-9.815
			c3.812-2.29,8.185-3.431,13.128-3.431c7.313,0,13.247,2.353,17.803,7.059c4.563,4.71,7.02,10.957,7.392,18.737l0.048,2.853
			c0,5.348-1.03,10.121-3.074,14.332c-2.06,4.207-4.999,7.463-8.817,9.765c-3.827,2.302-8.24,3.458-13.255,3.458
			c-7.646,0-13.762-2.551-18.357-7.642c-4.595-5.09-6.885-11.88-6.885-20.365V277.892z M317.945,278.941
			c0,5.577,1.148,9.946,3.454,13.104c2.306,3.153,5.506,4.73,9.61,4.73c4.111,0,7.305-1.601,9.594-4.81
			c2.282-3.204,3.438-7.898,3.438-14.074c0-5.479-1.188-9.82-3.533-13.025c-2.361-3.204-5.554-4.805-9.595-4.805
			c-3.977,0-7.138,1.576-9.468,4.729C319.101,267.948,317.945,272.666,317.945,278.941z"/>
		<path fill="#FFFFFF" d="M381.706,238.115v13.176h9.571v9.016h-9.571v30.257c0,2.072,0.404,3.565,1.229,4.484
			c0.816,0.919,2.281,1.379,4.381,1.379c1.402,0,2.829-0.167,4.255-0.503v9.416c-2.765,0.768-5.435,1.156-8.01,1.156
			c-9.349,0-14.031-5.162-14.031-15.48v-30.709h-8.913v-9.016h8.913v-13.176H381.706z"/>
		<path fill="#FFFFFF" d="M424.433,306.496c-7.717,0-13.968-2.433-18.761-7.289c-4.785-4.86-7.186-11.329-7.186-19.41v-1.506
			c0-5.411,1.045-10.243,3.129-14.498c2.084-4.263,5.016-7.574,8.794-9.943c3.771-2.372,7.979-3.557,12.621-3.557
			c7.376,0,13.08,2.353,17.104,7.059c4.025,4.71,6.037,11.373,6.037,19.989v4.908h-35.414c0.364,4.476,1.862,8.014,4.484,10.62
			s5.918,3.906,9.896,3.906c5.577,0,10.117-2.25,13.619-6.759l6.567,6.259c-2.17,3.241-5.07,5.752-8.691,7.539
			C433.005,305.601,428.941,306.496,424.433,306.496z M422.983,260.062c-3.343,0-6.037,1.165-8.097,3.502
			c-2.044,2.337-3.359,5.593-3.93,9.769h23.197v-0.899c-0.269-4.076-1.354-7.158-3.256-9.242
			C428.989,261.104,426.35,260.062,422.983,260.062z"/>
	</g>
</g>
</svg>
