<?xml version="1.0" encoding="utf-8"?>
<!-- Generator: Adobe Illustrator 16.0.0, SVG Export Plug-In . SVG Version: 6.00 Build 0)  -->
<!DOCTYPE svg PUBLIC "-//W3C//DTD SVG 1.1//EN" "http://www.w3.org/Graphics/SVG/1.1/DTD/svg11.dtd">
<svg version="1.1" id="Layer_1" xmlns="http://www.w3.org/2000/svg" xmlns:xlink="http://www.w3.org/1999/xlink" x="0px" y="0px"
	 width="992.957px" height="236.633px" viewBox="0 0 992.957 236.633" enable-background="new 0 0 992.957 236.633"
	 xml:space="preserve">
<g>
	<g>
		<path fill="#FFFFFF" d="M39.926,43.505H15.271h-1.736C6.073,43.505,0,49.578,0,57.04c0,7.462,6.073,13.535,13.535,13.535h1.081
			h25.31c7.462,0,13.535-6.073,13.535-13.535C53.46,49.578,47.388,43.505,39.926,43.505z"/>
		<path fill="#FFFFFF" d="M39.926,104.787h-25.31h-1.081C6.073,104.787,0,110.854,0,118.316s6.073,13.529,13.535,13.529h1.081h25.31
			c7.462,0,13.535-6.067,13.535-13.529S47.388,104.787,39.926,104.787z"/>
		<path fill="#FFFFFF" d="M39.926,166.059h-25.31h-1.081C6.073,166.059,0,172.131,0,179.603c0,7.457,6.073,13.524,13.535,13.524
			h1.736h24.655c7.462,0,13.535-6.068,13.535-13.524C53.46,172.131,47.388,166.059,39.926,166.059z"/>
		<path fill="#FFFFFF" d="M199.927,0H65.933C41.761,0,21.552,16.734,16.104,39.229h23.822c9.823,0,17.811,7.992,17.811,17.811
			c0,9.824-7.988,17.811-17.811,17.811h-25.31v25.66h25.31c9.823,0,17.811,7.988,17.811,17.806s-7.988,17.806-17.811,17.806h-25.31
			v25.66h25.31c9.823,0,17.811,7.993,17.811,17.821c0,9.813-7.988,17.801-17.811,17.801H16.104
			c5.448,22.494,25.657,39.229,49.829,39.229h133.994c28.339,0,51.32-22.976,51.32-51.319V51.319
			C251.247,22.976,228.266,0,199.927,0z M156.516,158.19h-13.931v-26.513l1.389-35.448l-23.735,61.961h-10.012L86.542,96.283
			l1.389,35.394v26.513H74.01V77.778h18.109l23.199,61.639l23.139-61.639h18.059V158.19z M232.83,157.575
			c-2.719,0.853-5.676,1.28-8.841,1.28c-10.299,0-15.459-5.69-15.459-17.067v-32.863h-18.327v49.265h-13.425v-49.265h-9.437V98.437
			h63.395v10.488h-8.782v32.367c0,2.282,0.447,3.924,1.34,4.941c0.903,1.012,2.53,1.518,4.842,1.518c1.399,0,2.967-0.184,4.693-0.55
			V157.575z"/>
	</g>
	<g>
		<path fill="#FFFFFF" d="M328.94,64.293l32.506,86.376l32.427-86.376h25.313v112.69h-19.508v-37.15l1.936-49.692l-33.28,86.842
			h-14.011l-33.201-86.763l1.935,49.613v37.15h-19.507V64.293H328.94z"/>
		<path fill="#FFFFFF" d="M490.548,176.983c-0.824-1.598-1.548-4.202-2.163-7.814c-5.983,6.246-13.316,9.362-21.979,9.362
			c-8.414,0-15.28-2.396-20.589-7.194c-5.318-4.802-7.979-10.736-7.979-17.801c0-8.931,3.314-15.777,9.953-20.55
			c6.628-4.772,16.104-7.164,28.438-7.164h11.54v-5.497c0-4.331-1.221-7.799-3.642-10.409c-2.421-2.604-6.112-3.91-11.063-3.91
			c-4.287,0-7.8,1.072-10.528,3.215c-2.738,2.144-4.107,4.862-4.107,8.167h-18.804c0-4.594,1.519-8.891,4.564-12.89
			c3.046-3.999,7.185-7.134,12.423-9.406c5.239-2.268,11.084-3.403,17.533-3.403c9.804,0,17.623,2.465,23.447,7.392
			c5.834,4.932,8.831,11.857,8.98,20.783v37.77c0,7.537,1.061,13.544,3.175,18.04v1.31H490.548z M469.889,163.439
			c3.712,0,7.204-0.903,10.488-2.708c3.274-1.806,5.735-4.227,7.393-7.273v-15.792h-10.141c-6.966,0-12.205,1.215-15.718,3.636
			c-3.502,2.431-5.259,5.859-5.259,10.3c0,3.612,1.2,6.489,3.602,8.627C462.646,162.368,465.861,163.439,469.889,163.439z"/>
		<path fill="#FFFFFF" d="M549.845,72.881v20.356h14.785v13.931h-14.785v46.755c0,3.195,0.625,5.507,1.896,6.926
			c1.26,1.419,3.522,2.123,6.767,2.123c2.174,0,4.366-0.253,6.579-0.774v14.557c-4.276,1.186-8.404,1.776-12.384,1.776
			c-14.447,0-21.67-7.968-21.67-23.913v-47.45h-13.773V93.237h13.773V72.881H549.845z"/>
		<path fill="#FFFFFF" d="M597.523,102.371c6.133-7.12,13.902-10.682,23.299-10.682c17.851,0,26.909,10.19,27.168,30.571v54.723
			h-18.813V122.96c0-5.78-1.251-9.868-3.751-12.269c-2.51-2.401-6.182-3.597-11.033-3.597c-7.531,0-13.158,3.354-16.869,10.061
			v59.828H578.71V58.102h18.813V102.371z"/>
		<path fill="#FFFFFF" d="M758.199,176.983h-19.577l-50.237-79.956v79.956h-19.577V64.293h19.577l50.387,80.264V64.293h19.428
			V176.983z"/>
		<path fill="#FFFFFF" d="M776,134.336c0-8.206,1.628-15.598,4.883-22.177c3.254-6.579,7.818-11.629,13.703-15.167
			c5.873-3.537,12.641-5.303,20.271-5.303c11.302,0,20.48,3.642,27.515,10.915c7.046,7.273,10.855,16.928,11.421,28.944l0.08,4.416
			c0,8.255-1.588,15.638-4.764,22.137c-3.175,6.499-7.709,11.53-13.623,15.092c-5.904,3.563-12.73,5.338-20.471,5.338
			c-11.817,0-21.273-3.929-28.368-11.798S776,148.377,776,135.269V134.336z M794.813,135.964c0,8.618,1.776,15.365,5.339,20.242
			c3.562,4.872,8.514,7.313,14.863,7.313c6.351,0,11.282-2.48,14.824-7.432c3.533-4.951,5.299-12.205,5.299-21.75
			c0-8.464-1.815-15.172-5.457-20.123c-3.632-4.951-8.573-7.432-14.824-7.432c-6.143,0-11.014,2.441-14.626,7.313
			C796.619,118.976,794.813,126.259,794.813,135.964z"/>
		<path fill="#FFFFFF" d="M893.344,72.881v20.356h14.784v13.931h-14.784v46.755c0,3.195,0.635,5.507,1.896,6.926
			c1.27,1.419,3.521,2.123,6.776,2.123c2.163,0,4.356-0.253,6.579-0.774v14.557c-4.287,1.186-8.414,1.776-12.384,1.776
			c-14.447,0-21.671-7.968-21.671-23.913v-47.45h-13.782V93.237h13.782V72.881H893.344z"/>
		<path fill="#FFFFFF" d="M959.369,178.531c-11.917,0-21.582-3.75-28.984-11.262c-7.412-7.501-11.112-17.503-11.112-29.991v-2.322
			c0-8.36,1.617-15.832,4.842-22.41s7.749-11.699,13.584-15.36c5.824-3.662,12.334-5.497,19.498-5.497
			c11.411,0,20.222,3.642,26.434,10.915c6.222,7.273,9.327,17.573,9.327,30.879v7.591h-54.723
			c0.565,6.916,2.877,12.383,6.926,16.407c4.059,4.024,9.148,6.038,15.291,6.038c8.612,0,15.638-3.483,21.055-10.448l10.142,9.674
			c-3.354,5.006-7.839,8.891-13.436,11.649C972.615,177.152,966.334,178.531,959.369,178.531z M957.126,106.781
			c-5.16,0-9.328,1.806-12.503,5.418s-5.199,8.643-6.072,15.092h35.83v-1.389c-0.417-6.296-2.084-11.054-5.03-14.279
			C966.414,108.399,962.335,106.781,957.126,106.781z"/>
	</g>
</g>
</svg>
